<?xml version="1.0" encoding="utf-8"?>
<!-- Generator: Adobe Illustrator 17.0.0, SVG Export Plug-In . SVG Version: 6.00 Build 0)  -->
<!DOCTYPE svg PUBLIC "-//W3C//DTD SVG 1.1//EN" "http://www.w3.org/Graphics/SVG/1.1/DTD/svg11.dtd">
<svg version="1.1" id="Layer_1" xmlns="http://www.w3.org/2000/svg" xmlns:xlink="http://www.w3.org/1999/xlink" x="0px" y="0px"
	 width="310px" height="80px" viewBox="0.25 0 310 80" enable-background="new 0.25 0 310 80" xml:space="preserve">
<g>
	<g>
		<g>
			<linearGradient id="SVGID_1_" gradientUnits="userSpaceOnUse" x1="1.2259" y1="40" x2="79.2259" y2="40">
				<stop  offset="0" style="stop-color:#75AC2C"/>
				<stop  offset="1" style="stop-color:#D7D800"/>
			</linearGradient>
			<path fill="url(#SVGID_1_)" d="M12.649,67.577c-3.147-11.501-3.147-19.668-1.909-25.98c1.609-8.91,6.176-14.714,10.519-19.058
				c3.96-3.712,12.34-6.54,18.968-6.54s12.627,2.686,16.971,7.029S64.226,33.373,64.226,40s-2.686,12.627-7.029,16.971
				S46.853,64,40.226,64v15c10.77,0,20.52-4.365,27.577-11.423S79.226,50.77,79.226,40c0-10.77-4.365-20.52-11.423-27.577
				S50.995,1,40.226,1c-10.77,0-20.52,4.365-27.577,11.423S1.226,29.23,1.226,40C1.226,50.77,5.591,60.52,12.649,67.577"/>
			<g>
				
					<linearGradient id="SVGID_2_" gradientUnits="userSpaceOnUse" x1="351.9558" y1="5.3492" x2="423.0841" y2="5.3492" gradientTransform="matrix(-1 0 0 -1 431.1818 51.0606)">
					<stop  offset="0" style="stop-color:#3DBDE3"/>
					<stop  offset="1" style="stop-color:#008097"/>
				</linearGradient>
				<path fill="url(#SVGID_2_)" d="M67.803,12.423c5.059,11.788,4.26,19.668,3.023,25.98c-1.609,8.91-7.289,14.714-11.632,19.057
					C55.233,61.173,46.853,64,40.226,64s-12.627-2.686-16.971-7.029S16.226,46.627,16.226,40s2.686-12.627,7.029-16.971
					S33.599,16,40.226,16h0c-9.439,0-15.131,2.023-19.586,5.55c-5.012,4.393-9.918,10.766-11.694,18.821
					c-1.936,8.156-0.495,19.201,3.703,27.206C19.706,74.635,29.456,79,40.226,79s20.52-4.365,27.577-11.423S79.226,50.77,79.226,40
					C79.226,29.23,74.861,19.48,67.803,12.423"/>
			</g>
		</g>
	</g>
	<g>
		<g>
			<path fill="#FFFFFF" d="M97.113,40.079c-1.386,0-2.672-0.251-3.858-0.753c-1.186-0.502-2.213-1.191-3.079-2.066
				c-0.866-0.874-1.546-1.905-2.039-3.091c-0.494-1.186-0.74-2.455-0.74-3.806c0-1.351,0.247-2.619,0.74-3.806
				c0.493-1.186,1.173-2.217,2.039-3.091c0.866-0.874,1.892-1.563,3.079-2.065c1.186-0.502,2.472-0.753,3.858-0.753
				c1.385,0,2.671,0.251,3.858,0.753c1.186,0.503,2.212,1.191,3.079,2.065c0.866,0.875,1.546,1.905,2.039,3.091
				c0.494,1.187,0.74,2.455,0.74,3.806c0,1.351-0.247,2.62-0.74,3.806c-0.493,1.186-1.173,2.217-2.039,3.091
				c-0.866,0.875-1.893,1.563-3.079,2.066C99.784,39.828,98.498,40.079,97.113,40.079z M97.113,36.754
				c0.866,0,1.676-0.156,2.429-0.468c0.753-0.312,1.411-0.744,1.974-1.299c0.563-0.554,1.004-1.225,1.325-2.013
				c0.32-0.788,0.481-1.658,0.481-2.611c0-0.952-0.16-1.823-0.481-2.611c-0.321-0.788-0.762-1.459-1.325-2.013
				c-0.563-0.554-1.221-0.987-1.974-1.299c-0.753-0.312-1.563-0.468-2.429-0.468c-0.866,0-1.676,0.156-2.429,0.468
				c-0.753,0.312-1.412,0.745-1.974,1.299c-0.563,0.554-1.005,1.225-1.325,2.013c-0.321,0.788-0.481,1.659-0.481,2.611
				c0,0.953,0.16,1.823,0.481,2.611c0.32,0.788,0.762,1.459,1.325,2.013c0.563,0.555,1.221,0.987,1.974,1.299
				C95.437,36.598,96.247,36.754,97.113,36.754z"/>
			<path fill="#FFFFFF" d="M109.66,21.063h6.78c0.935,0,1.784,0.147,2.546,0.442c0.762,0.295,1.416,0.701,1.961,1.221
				c0.546,0.52,0.965,1.139,1.26,1.857c0.294,0.719,0.441,1.503,0.441,2.351c0,0.623-0.104,1.208-0.312,1.754
				c-0.208,0.545-0.493,1.039-0.857,1.481c-0.364,0.442-0.788,0.831-1.273,1.169c-0.485,0.338-0.996,0.602-1.533,0.792l-0.026,0.182
				l4.988,7.144v0.208h-4.026l-4.806-6.988h-1.637v6.988h-3.507V21.063z M116.414,29.454c0.797,0,1.45-0.242,1.961-0.727
				c0.511-0.485,0.766-1.1,0.766-1.845c0-0.329-0.056-0.649-0.169-0.961c-0.113-0.312-0.282-0.589-0.507-0.831
				c-0.225-0.242-0.506-0.437-0.844-0.584s-0.723-0.221-1.156-0.221h-3.299v5.17H116.414z"/>
			<path fill="#FFFFFF" d="M125.766,21.063h3.507v18.6h-3.507V21.063z"/>
			<path fill="#FFFFFF" d="M138.703,40.079c-0.797,0-1.559-0.113-2.286-0.337c-0.727-0.225-1.394-0.563-2-1.013
				c-0.606-0.45-1.135-1-1.585-1.65c-0.451-0.649-0.805-1.407-1.065-2.273l3.299-1.299c0.242,0.935,0.667,1.711,1.273,2.325
				c0.606,0.615,1.403,0.922,2.39,0.922c0.364,0,0.714-0.048,1.052-0.143c0.338-0.095,0.641-0.234,0.909-0.415
				c0.268-0.182,0.48-0.411,0.636-0.688c0.156-0.277,0.234-0.597,0.234-0.961c0-0.346-0.061-0.658-0.182-0.935
				c-0.121-0.277-0.325-0.537-0.61-0.779c-0.286-0.242-0.658-0.476-1.117-0.701c-0.459-0.225-1.026-0.459-1.702-0.701l-1.143-0.415
				c-0.503-0.173-1.009-0.407-1.52-0.701c-0.511-0.294-0.974-0.649-1.39-1.065c-0.416-0.416-0.758-0.905-1.026-1.468
				c-0.269-0.563-0.403-1.199-0.403-1.91c0-0.727,0.143-1.407,0.429-2.039c0.286-0.632,0.692-1.186,1.221-1.663
				c0.528-0.476,1.16-0.848,1.896-1.117c0.736-0.268,1.554-0.402,2.455-0.402c0.935,0,1.745,0.126,2.429,0.376
				c0.684,0.251,1.264,0.572,1.741,0.961c0.476,0.39,0.861,0.818,1.156,1.286c0.294,0.468,0.511,0.909,0.649,1.325l-3.091,1.299
				c-0.173-0.519-0.49-0.987-0.949-1.403c-0.459-0.416-1.087-0.623-1.883-0.623c-0.762,0-1.394,0.178-1.896,0.532
				c-0.503,0.355-0.753,0.818-0.753,1.39c0,0.554,0.243,1.026,0.727,1.416c0.485,0.39,1.255,0.766,2.312,1.13l1.169,0.39
				c0.745,0.26,1.424,0.558,2.039,0.896c0.615,0.338,1.143,0.74,1.585,1.208c0.442,0.468,0.779,1,1.013,1.598
				c0.234,0.597,0.351,1.286,0.351,2.065c0,0.97-0.195,1.805-0.584,2.507c-0.39,0.701-0.888,1.277-1.494,1.728
				c-0.607,0.451-1.291,0.788-2.052,1.013C140.175,39.966,139.431,40.079,138.703,40.079z"/>
			<path fill="#FFFFFF" d="M151.874,31.013l-6.261-9.95h4.182l3.715,6.157h0.208l3.585-6.157h4.234l-6.157,9.95v8.651h-3.507V31.013
				z"/>
			<path fill="#FFFFFF" d="M169.02,40.079c-0.797,0-1.559-0.113-2.286-0.337c-0.727-0.225-1.394-0.563-2-1.013
				c-0.606-0.45-1.135-1-1.585-1.65c-0.451-0.649-0.805-1.407-1.065-2.273l3.299-1.299c0.242,0.935,0.667,1.711,1.273,2.325
				c0.606,0.615,1.403,0.922,2.39,0.922c0.364,0,0.714-0.048,1.052-0.143c0.338-0.095,0.641-0.234,0.909-0.415
				c0.268-0.182,0.48-0.411,0.636-0.688c0.156-0.277,0.234-0.597,0.234-0.961c0-0.346-0.061-0.658-0.182-0.935
				c-0.121-0.277-0.325-0.537-0.61-0.779c-0.286-0.242-0.658-0.476-1.117-0.701c-0.459-0.225-1.026-0.459-1.702-0.701l-1.143-0.415
				c-0.503-0.173-1.009-0.407-1.52-0.701c-0.511-0.294-0.974-0.649-1.39-1.065c-0.416-0.416-0.758-0.905-1.026-1.468
				c-0.269-0.563-0.403-1.199-0.403-1.91c0-0.727,0.143-1.407,0.429-2.039c0.286-0.632,0.692-1.186,1.221-1.663
				c0.528-0.476,1.16-0.848,1.896-1.117c0.736-0.268,1.554-0.402,2.455-0.402c0.936,0,1.745,0.126,2.429,0.376
				c0.684,0.251,1.264,0.572,1.741,0.961c0.476,0.39,0.861,0.818,1.156,1.286c0.294,0.468,0.511,0.909,0.649,1.325l-3.091,1.299
				c-0.173-0.519-0.49-0.987-0.949-1.403c-0.459-0.416-1.087-0.623-1.883-0.623c-0.762,0-1.394,0.178-1.896,0.532
				c-0.503,0.355-0.753,0.818-0.753,1.39c0,0.554,0.243,1.026,0.727,1.416c0.485,0.39,1.255,0.766,2.312,1.13l1.169,0.39
				c0.745,0.26,1.424,0.558,2.039,0.896c0.615,0.338,1.143,0.74,1.585,1.208c0.442,0.468,0.779,1,1.013,1.598
				c0.234,0.597,0.351,1.286,0.351,2.065c0,0.97-0.195,1.805-0.584,2.507c-0.39,0.701-0.888,1.277-1.494,1.728
				c-0.607,0.451-1.291,0.788-2.052,1.013C170.491,39.966,169.747,40.079,169.02,40.079z"/>
			<path fill="#FFFFFF" d="M188.632,21.063h4.001l6.988,18.6h-3.87l-1.534-4.442h-7.169l-1.533,4.442h-3.871L188.632,21.063z
				 M193.075,32l-1.663-4.65l-0.675-2.26h-0.208l-0.675,2.26L188.191,32H193.075z"/>
			<path fill="#FFFFFF" d="M217.546,36.676c-0.918,1.109-2,1.953-3.247,2.533c-1.247,0.58-2.641,0.87-4.182,0.87
				c-1.386,0-2.672-0.251-3.858-0.753c-1.187-0.502-2.213-1.186-3.079-2.053c-0.866-0.866-1.55-1.892-2.052-3.078
				c-0.502-1.186-0.753-2.463-0.753-3.832c0-1.368,0.251-2.645,0.753-3.832c0.502-1.186,1.186-2.212,2.052-3.078
				c0.866-0.866,1.892-1.55,3.079-2.052c1.186-0.502,2.472-0.753,3.858-0.753c1.489,0,2.801,0.26,3.935,0.779
				c1.134,0.52,2.143,1.273,3.027,2.26l-2.468,2.39c-0.555-0.641-1.191-1.152-1.91-1.533s-1.572-0.572-2.559-0.572
				c-0.866,0-1.679,0.152-2.442,0.455c-0.762,0.303-1.424,0.732-1.987,1.286c-0.563,0.554-1.009,1.225-1.338,2.013
				c-0.329,0.788-0.493,1.667-0.493,2.637c0,0.97,0.164,1.849,0.493,2.637c0.329,0.788,0.775,1.459,1.338,2.013
				c0.563,0.555,1.225,0.983,1.987,1.286c0.762,0.303,1.576,0.455,2.442,0.455c1.04,0,1.962-0.212,2.767-0.636
				c0.805-0.424,1.52-1.026,2.143-1.806L217.546,36.676z"/>
			<path fill="#FFFFFF" d="M225.781,21.063h4.001l6.988,18.6h-3.871l-1.533-4.442h-7.17l-1.532,4.442h-3.871L225.781,21.063z
				 M230.223,32l-1.663-4.65l-0.675-2.26h-0.208l-0.675,2.26L225.339,32H230.223z"/>
			<path fill="#FFFFFF" d="M238.952,21.063h6.286c1.472,0,2.797,0.225,3.975,0.675c1.178,0.451,2.182,1.087,3.014,1.909
				c0.831,0.823,1.468,1.806,1.909,2.949c0.442,1.143,0.663,2.399,0.663,3.767c0,1.386-0.221,2.65-0.663,3.793
				c-0.441,1.143-1.078,2.122-1.909,2.936c-0.831,0.814-1.836,1.446-3.014,1.896c-1.178,0.45-2.503,0.675-3.975,0.675h-6.286V21.063
				z M245.083,36.338c1.022,0,1.922-0.143,2.702-0.428c0.779-0.286,1.428-0.688,1.948-1.208c0.519-0.519,0.909-1.147,1.169-1.883
				c0.259-0.736,0.389-1.554,0.389-2.455c0-0.9-0.13-1.719-0.389-2.455c-0.26-0.736-0.649-1.364-1.169-1.883
				c-0.52-0.519-1.17-0.922-1.948-1.208c-0.779-0.286-1.68-0.429-2.702-0.429h-2.624v11.95H245.083z"/>
			<path fill="#FFFFFF" d="M261.137,24.389v4.312h7.455v3.325h-7.455v4.312h8.287v3.325H257.63v-18.6h11.794v3.325H261.137z"/>
			<path fill="#FFFFFF" d="M272.645,21.063h3.455l5.689,9.846h0.208l5.689-9.846h3.481v18.6h-3.481v-9.17l0.208-3.117h-0.208
				l-4.728,8.339h-2.104l-4.754-8.339h-0.208l0.208,3.117v9.17h-3.455V21.063z"/>
			<path fill="#FFFFFF" d="M299.61,31.013l-6.26-9.95h4.182l3.715,6.157h0.208l3.585-6.157h4.234l-6.157,9.95v8.651h-3.507V31.013z"
				/>
		</g>
		<g>
			<path fill="#FFFFFF" d="M90.748,48.441c0.433,0,0.788,0.074,1.065,0.221l-0.325,1.052c-0.208-0.104-0.441-0.156-0.701-0.156
				c-0.295,0-0.535,0.101-0.721,0.305c-0.186,0.204-0.279,0.474-0.279,0.812v0.805h1.663v1.091h-1.663v5.274h-1.195v-5.274h-1.195
				v-1.091h1.195v-0.922c0-0.632,0.201-1.144,0.604-1.533C89.599,48.636,90.116,48.441,90.748,48.441z"/>
			<path fill="#FFFFFF" d="M93.073,54.663c0-0.978,0.307-1.788,0.922-2.428c0.623-0.641,1.407-0.961,2.351-0.961
				c0.944,0,1.723,0.32,2.338,0.961c0.623,0.641,0.935,1.45,0.935,2.428c0,0.987-0.312,1.797-0.935,2.429
				c-0.615,0.641-1.394,0.961-2.338,0.961c-0.944,0-1.728-0.32-2.351-0.961C93.381,56.451,93.073,55.641,93.073,54.663z
				 M94.268,54.663c0,0.684,0.199,1.239,0.597,1.663s0.892,0.636,1.481,0.636c0.589,0,1.082-0.212,1.481-0.636
				c0.398-0.424,0.597-0.979,0.597-1.663c0-0.675-0.199-1.225-0.597-1.65c-0.407-0.433-0.901-0.649-1.481-0.649
				c-0.58,0-1.074,0.217-1.481,0.649C94.467,53.438,94.268,53.987,94.268,54.663z"/>
			<path fill="#FFFFFF" d="M103.01,57.845h-1.195v-6.365h1.143v1.039h0.052c0.121-0.337,0.37-0.625,0.747-0.864
				c0.377-0.238,0.747-0.357,1.111-0.357c0.346,0,0.641,0.052,0.883,0.156l-0.364,1.156c-0.147-0.061-0.381-0.091-0.701-0.091
				c-0.45,0-0.842,0.182-1.176,0.545c-0.333,0.364-0.5,0.788-0.5,1.273V57.845z"/>
			<path fill="#FFFFFF" d="M117.414,55.358c0,0.816-0.299,1.471-0.896,1.966c-0.606,0.486-1.342,0.729-2.208,0.729
				c-0.771,0-1.45-0.225-2.039-0.675c-0.589-0.45-0.996-1.066-1.221-1.844l1.143-0.468c0.078,0.277,0.186,0.528,0.325,0.753
				c0.138,0.225,0.301,0.418,0.487,0.578c0.186,0.16,0.392,0.286,0.617,0.377c0.225,0.091,0.463,0.136,0.714,0.136
				c0.545,0,0.991-0.14,1.338-0.422c0.346-0.282,0.519-0.656,0.519-1.124c0-0.389-0.143-0.723-0.428-1
				c-0.269-0.268-0.771-0.528-1.507-0.779c-0.745-0.268-1.208-0.45-1.39-0.546c-0.987-0.502-1.481-1.242-1.481-2.221
				c0-0.684,0.273-1.268,0.818-1.753c0.554-0.485,1.234-0.727,2.039-0.727c0.71,0,1.325,0.181,1.845,0.545
				c0.519,0.355,0.866,0.801,1.039,1.338l-1.117,0.468c-0.104-0.346-0.31-0.634-0.617-0.864c-0.307-0.23-0.682-0.344-1.124-0.344
				c-0.467,0-0.862,0.129-1.182,0.388c-0.321,0.242-0.481,0.556-0.481,0.944c0,0.319,0.126,0.595,0.377,0.828
				c0.277,0.233,0.879,0.509,1.806,0.828c0.944,0.322,1.617,0.714,2.02,1.178C117.213,54.11,117.414,54.681,117.414,55.358z"/>
			<path fill="#FFFFFF" d="M125.481,57.845h-1.442l-1.987-3.001l-0.974,0.961v2.039h-1.195v-9.3h1.195v5.728l2.754-2.793h1.533
				v0.052l-2.481,2.468l2.598,3.793V57.845z"/>
			<path fill="#FFFFFF" d="M128.935,49.286c0,0.233-0.082,0.433-0.247,0.597c-0.165,0.164-0.364,0.247-0.597,0.247
				c-0.234,0-0.433-0.082-0.598-0.247c-0.165-0.164-0.247-0.364-0.247-0.597c0-0.234,0.082-0.433,0.247-0.597
				c0.165-0.165,0.364-0.247,0.598-0.247c0.234,0,0.433,0.082,0.597,0.247C128.853,48.852,128.935,49.052,128.935,49.286z
				 M128.689,51.481v6.365h-1.195v-6.365H128.689z"/>
			<path fill="#FFFFFF" d="M132.676,48.545v9.3h-1.195v-9.3H132.676z"/>
			<path fill="#FFFFFF" d="M136.56,48.545v9.3h-1.195v-9.3H136.56z"/>
			<path fill="#FFFFFF" d="M143.548,57.845v-9.3h2.845c1.42,0,2.561,0.429,3.423,1.286c0.862,0.857,1.293,1.979,1.293,3.364
				c0,1.395-0.431,2.518-1.293,3.371s-2.003,1.279-3.423,1.279H143.548z M144.743,49.688v7.014h1.65c1.082,0,1.935-0.31,2.559-0.929
				c0.624-0.619,0.935-1.478,0.935-2.578c0-1.091-0.312-1.948-0.935-2.572c-0.623-0.623-1.476-0.935-2.559-0.935H144.743z"/>
			<path fill="#FFFFFF" d="M156.212,58.053c-0.935,0-1.706-0.32-2.312-0.961c-0.606-0.641-0.909-1.45-0.909-2.429
				c0-0.97,0.294-1.777,0.883-2.422c0.589-0.645,1.342-0.968,2.26-0.968c0.944,0,1.695,0.305,2.254,0.916
				c0.558,0.611,0.838,1.466,0.838,2.565l-0.013,0.13h-5.001c0.017,0.623,0.225,1.126,0.623,1.506
				c0.398,0.381,0.875,0.571,1.429,0.571c0.762,0,1.359-0.381,1.792-1.143l1.065,0.519c-0.286,0.537-0.682,0.957-1.189,1.26
				C157.427,57.902,156.853,58.053,156.212,58.053z M154.303,53.896h3.65c-0.035-0.441-0.214-0.807-0.539-1.097
				c-0.325-0.29-0.76-0.436-1.306-0.436c-0.45,0-0.838,0.139-1.163,0.416C154.621,53.057,154.407,53.429,154.303,53.896z"/>
			<path fill="#FFFFFF" d="M164.512,57.845h-1.195l-2.572-6.365h1.299l1.87,4.936h0.026l1.896-4.936h1.273L164.512,57.845z"/>
			<path fill="#FFFFFF" d="M171.786,58.053c-0.935,0-1.706-0.32-2.312-0.961c-0.606-0.641-0.909-1.45-0.909-2.429
				c0-0.97,0.294-1.777,0.883-2.422c0.589-0.645,1.342-0.968,2.26-0.968c0.944,0,1.695,0.305,2.254,0.916
				c0.558,0.611,0.838,1.466,0.838,2.565l-0.013,0.13h-5.001c0.017,0.623,0.225,1.126,0.623,1.506
				c0.398,0.381,0.875,0.571,1.429,0.571c0.762,0,1.359-0.381,1.792-1.143l1.065,0.519c-0.286,0.537-0.682,0.957-1.189,1.26
				C173,57.902,172.426,58.053,171.786,58.053z M169.876,53.896h3.65c-0.035-0.441-0.214-0.807-0.539-1.097
				c-0.325-0.29-0.76-0.436-1.306-0.436c-0.45,0-0.838,0.139-1.163,0.416C170.194,53.057,169.98,53.429,169.876,53.896z"/>
			<path fill="#FFFFFF" d="M178.319,48.545v9.3h-1.195v-9.3H178.319z"/>
			<path fill="#FFFFFF" d="M180.579,54.663c0-0.978,0.307-1.788,0.922-2.428c0.623-0.641,1.407-0.961,2.351-0.961
				c0.944,0,1.723,0.32,2.338,0.961c0.624,0.641,0.935,1.45,0.935,2.428c0,0.987-0.311,1.797-0.935,2.429
				c-0.615,0.641-1.394,0.961-2.338,0.961c-0.944,0-1.728-0.32-2.351-0.961C180.887,56.451,180.579,55.641,180.579,54.663z
				 M181.774,54.663c0,0.684,0.199,1.239,0.597,1.663c0.398,0.424,0.892,0.636,1.481,0.636c0.589,0,1.082-0.212,1.48-0.636
				c0.398-0.424,0.597-0.979,0.597-1.663c0-0.675-0.199-1.225-0.597-1.65c-0.407-0.433-0.901-0.649-1.48-0.649
				c-0.58,0-1.074,0.217-1.481,0.649C181.973,53.438,181.774,53.987,181.774,54.663z"/>
			<path fill="#FFFFFF" d="M192.698,58.053c-0.467,0-0.894-0.1-1.279-0.299c-0.386-0.199-0.682-0.464-0.89-0.793h-0.052l0.052,0.883
				v2.806h-1.195v-9.17h1.143v0.883h0.052c0.208-0.329,0.505-0.593,0.89-0.792c0.384-0.199,0.812-0.299,1.279-0.299
				c0.84,0,1.55,0.329,2.131,0.987c0.597,0.667,0.896,1.468,0.896,2.402c0,0.944-0.298,1.745-0.896,2.403
				C194.248,57.724,193.538,58.053,192.698,58.053z M192.504,56.962c0.571,0,1.052-0.216,1.441-0.649
				c0.391-0.424,0.585-0.974,0.585-1.65c0-0.667-0.194-1.216-0.585-1.65c-0.389-0.433-0.87-0.649-1.441-0.649
				c-0.581,0-1.066,0.217-1.455,0.649c-0.382,0.433-0.572,0.983-0.572,1.65c0,0.675,0.19,1.23,0.572,1.663
				C191.438,56.75,191.923,56.962,192.504,56.962z"/>
			<path fill="#FFFFFF" d="M199.18,57.845h-1.195v-6.365h1.143v0.883h0.052c0.183-0.311,0.462-0.571,0.838-0.779
				c0.377-0.208,0.751-0.312,1.124-0.312c0.467,0,0.878,0.108,1.233,0.325c0.355,0.217,0.615,0.516,0.78,0.896
				c0.528-0.814,1.26-1.221,2.194-1.221c0.736,0,1.304,0.225,1.702,0.675c0.398,0.45,0.597,1.091,0.597,1.922v3.975h-1.195v-3.793
				c0-0.597-0.109-1.028-0.325-1.293c-0.217-0.264-0.581-0.396-1.091-0.396c-0.459,0-0.845,0.195-1.157,0.585
				c-0.312,0.389-0.467,0.849-0.467,1.377v3.52h-1.196v-3.793c0-0.597-0.108-1.028-0.325-1.293c-0.216-0.264-0.58-0.396-1.091-0.396
				c-0.459,0-0.844,0.195-1.156,0.585c-0.312,0.389-0.468,0.849-0.468,1.377V57.845z"/>
			<path fill="#FFFFFF" d="M213.143,58.053c-0.935,0-1.706-0.32-2.312-0.961c-0.606-0.641-0.909-1.45-0.909-2.429
				c0-0.97,0.294-1.777,0.884-2.422c0.589-0.645,1.342-0.968,2.26-0.968c0.944,0,1.695,0.305,2.253,0.916
				c0.559,0.611,0.838,1.466,0.838,2.565l-0.014,0.13h-5c0.018,0.623,0.225,1.126,0.624,1.506c0.397,0.381,0.874,0.571,1.428,0.571
				c0.762,0,1.36-0.381,1.792-1.143l1.066,0.519c-0.287,0.537-0.682,0.957-1.189,1.26C214.357,57.902,213.784,58.053,213.143,58.053
				z M211.234,53.896h3.649c-0.034-0.441-0.214-0.807-0.539-1.097c-0.325-0.29-0.76-0.436-1.305-0.436
				c-0.45,0-0.837,0.139-1.162,0.416C211.552,53.057,211.338,53.429,211.234,53.896z"/>
			<path fill="#FFFFFF" d="M218.482,51.481h1.143v0.883h0.052c0.181-0.311,0.46-0.571,0.837-0.779
				c0.377-0.208,0.769-0.312,1.176-0.312c0.779,0,1.379,0.223,1.799,0.669s0.63,1.08,0.63,1.903v4.001h-1.195v-3.923
				c-0.027-1.039-0.551-1.559-1.572-1.559c-0.477,0-0.875,0.193-1.195,0.578c-0.321,0.385-0.481,0.847-0.481,1.383v3.52h-1.195
				V51.481z"/>
			<path fill="#FFFFFF" d="M228.951,57.949c-0.52,0-0.951-0.16-1.293-0.481c-0.342-0.32-0.518-0.766-0.526-1.338v-3.559h-1.116
				v-1.091h1.116v-1.948h1.195v1.948h1.559v1.091h-1.559v3.169c0,0.424,0.082,0.712,0.247,0.864c0.164,0.152,0.35,0.228,0.558,0.228
				c0.095,0,0.189-0.011,0.279-0.033c0.091-0.022,0.176-0.049,0.254-0.084l0.377,1.066
				C229.729,57.893,229.365,57.949,228.951,57.949z"/>
			<path fill="#FFFFFF" d="M242.304,56.234l0.87,1.144l-0.897,0.675l-0.637-0.845c-0.632,0.563-1.351,0.845-2.155,0.845
				c-0.945,0-1.745-0.316-2.404-0.948c-0.658-0.632-0.987-1.412-0.987-2.338c0-0.545,0.145-1.063,0.435-1.552
				c0.29-0.489,0.682-0.885,1.176-1.189c-0.45-0.58-0.676-1.095-0.676-1.546c0-0.589,0.221-1.093,0.662-1.513
				c0.443-0.42,0.97-0.63,1.586-0.63c0.493,0,0.922,0.141,1.285,0.422c0.364,0.282,0.628,0.665,0.793,1.15l-1.026,0.545
				c-0.242-0.649-0.594-0.974-1.052-0.974c-0.303,0-0.553,0.091-0.747,0.273c-0.195,0.182-0.293,0.424-0.293,0.727
				c0,0.294,0.1,0.571,0.299,0.831l3.079,4.026l0.831-1.39l0.936,0.571L242.304,56.234z M237.185,54.767
				c0,0.623,0.221,1.145,0.662,1.565c0.441,0.42,0.988,0.63,1.638,0.63c0.614,0,1.112-0.207,1.493-0.623l-2.61-3.442
				c-0.364,0.199-0.652,0.467-0.864,0.805C237.292,54.039,237.185,54.394,237.185,54.767z"/>
			<path fill="#FFFFFF" d="M251.109,57.845h-1.195v-9.3h3.17c0.804,0,1.49,0.266,2.059,0.799c0.567,0.533,0.85,1.189,0.85,1.968
				c0,0.641-0.209,1.21-0.629,1.708s-0.951,0.816-1.592,0.955l-0.025,0.039l2.61,3.78v0.052h-1.416l-2.506-3.767h-1.326V57.845z
				 M251.109,49.688v3.273h1.923c0.485,0,0.896-0.158,1.233-0.474c0.339-0.316,0.507-0.708,0.507-1.175
				c0-0.433-0.159-0.812-0.474-1.137c-0.316-0.325-0.713-0.487-1.189-0.487H251.109z"/>
			<path fill="#FFFFFF" d="M261.176,58.053c-0.935,0-1.706-0.32-2.312-0.961c-0.606-0.641-0.909-1.45-0.909-2.429
				c0-0.97,0.294-1.777,0.884-2.422c0.589-0.645,1.342-0.968,2.26-0.968c0.944,0,1.695,0.305,2.253,0.916
				c0.559,0.611,0.838,1.466,0.838,2.565l-0.014,0.13h-5c0.018,0.623,0.225,1.126,0.624,1.506c0.397,0.381,0.874,0.571,1.428,0.571
				c0.762,0,1.36-0.381,1.792-1.143l1.066,0.519c-0.287,0.537-0.682,0.957-1.189,1.26C262.39,57.902,261.816,58.053,261.176,58.053z
				 M259.267,53.896h3.649c-0.034-0.441-0.214-0.807-0.539-1.097c-0.325-0.29-0.76-0.436-1.305-0.436
				c-0.45,0-0.837,0.139-1.162,0.416C259.585,53.057,259.371,53.429,259.267,53.896z"/>
			<path fill="#FFFFFF" d="M271.45,56.079c0,0.554-0.244,1.022-0.728,1.403c-0.485,0.381-1.095,0.571-1.832,0.571
				c-0.641,0-1.204-0.167-1.688-0.5c-0.485-0.333-0.831-0.772-1.039-1.319l1.066-0.454c0.156,0.381,0.383,0.677,0.681,0.89
				c0.299,0.212,0.625,0.318,0.981,0.318c0.382,0,0.7-0.082,0.955-0.247c0.255-0.164,0.383-0.359,0.383-0.584
				c0-0.407-0.312-0.706-0.935-0.897l-1.091-0.273c-1.239-0.311-1.858-0.909-1.858-1.792c0-0.58,0.236-1.045,0.708-1.396
				c0.472-0.351,1.077-0.526,1.813-0.526c0.563,0,1.072,0.134,1.526,0.403c0.455,0.268,0.772,0.628,0.955,1.078l-1.066,0.441
				c-0.122-0.268-0.318-0.478-0.591-0.63c-0.273-0.152-0.578-0.228-0.916-0.228c-0.312,0-0.591,0.078-0.837,0.234
				c-0.247,0.156-0.37,0.346-0.37,0.571c0,0.364,0.342,0.623,1.026,0.779l0.962,0.247C270.817,54.481,271.45,55.117,271.45,56.079z"
				/>
			<path fill="#FFFFFF" d="M276.645,58.053c-0.935,0-1.705-0.32-2.311-0.961c-0.606-0.641-0.909-1.45-0.909-2.429
				c0-0.97,0.294-1.777,0.883-2.422c0.589-0.645,1.342-0.968,2.26-0.968c0.944,0,1.695,0.305,2.254,0.916
				c0.558,0.611,0.837,1.466,0.837,2.565l-0.013,0.13h-5c0.016,0.623,0.225,1.126,0.623,1.506c0.398,0.381,0.874,0.571,1.428,0.571
				c0.762,0,1.36-0.381,1.794-1.143l1.064,0.519c-0.285,0.537-0.681,0.957-1.189,1.26C277.86,57.902,277.287,58.053,276.645,58.053z
				 M274.736,53.896h3.651c-0.036-0.441-0.214-0.807-0.539-1.097c-0.325-0.29-0.76-0.436-1.305-0.436
				c-0.45,0-0.838,0.139-1.163,0.416C275.054,53.057,274.84,53.429,274.736,53.896z"/>
			<path fill="#FFFFFF" d="M284.465,51.273c0.883,0,1.581,0.236,2.09,0.708c0.511,0.472,0.767,1.119,0.767,1.942v3.923h-1.143
				v-0.883h-0.052c-0.495,0.727-1.152,1.092-1.975,1.092c-0.701,0-1.287-0.208-1.759-0.623c-0.473-0.416-0.709-0.935-0.709-1.559
				c0-0.658,0.25-1.182,0.747-1.572c0.499-0.389,1.163-0.585,1.994-0.585c0.71,0,1.295,0.13,1.754,0.39v-0.273
				c0-0.416-0.165-0.769-0.495-1.059c-0.329-0.29-0.714-0.436-1.156-0.436c-0.667,0-1.195,0.282-1.584,0.845l-1.053-0.663
				C282.473,51.688,283.33,51.273,284.465,51.273z M282.919,55.897c0,0.312,0.132,0.571,0.397,0.779
				c0.264,0.207,0.573,0.311,0.929,0.311c0.502,0,0.95-0.186,1.345-0.558c0.393-0.372,0.591-0.81,0.591-1.312
				c-0.373-0.294-0.893-0.441-1.559-0.441c-0.486,0-0.89,0.117-1.215,0.351C283.081,55.26,282.919,55.551,282.919,55.897z"/>
			<path fill="#FFFFFF" d="M291.101,57.845h-1.195v-6.365h1.143v1.039h0.052c0.122-0.337,0.37-0.625,0.747-0.864
				c0.377-0.238,0.747-0.357,1.111-0.357c0.346,0,0.641,0.052,0.883,0.156l-0.364,1.156c-0.147-0.061-0.381-0.091-0.701-0.091
				c-0.45,0-0.842,0.182-1.175,0.545c-0.334,0.364-0.501,0.788-0.501,1.273V57.845z"/>
			<path fill="#FFFFFF" d="M298.375,58.053c-0.944,0-1.726-0.32-2.35-0.961c-0.615-0.658-0.922-1.468-0.922-2.429
				c0-0.978,0.307-1.788,0.922-2.428c0.624-0.641,1.407-0.961,2.35-0.961c0.649,0,1.216,0.162,1.702,0.487
				c0.485,0.325,0.849,0.773,1.091,1.345l-1.091,0.455c-0.337-0.797-0.931-1.196-1.78-1.196c-0.545,0-1.017,0.221-1.416,0.663
				c-0.389,0.441-0.585,0.987-0.585,1.636c0,0.649,0.195,1.196,0.585,1.637c0.398,0.441,0.87,0.662,1.416,0.662
				c0.874,0,1.489-0.398,1.844-1.195l1.066,0.455c-0.235,0.571-0.6,1.02-1.098,1.345C299.612,57.891,299.033,58.053,298.375,58.053z
				"/>
			<path fill="#FFFFFF" d="M303.48,48.545h1.195v2.936l-0.052,0.883h0.052c0.181-0.311,0.46-0.571,0.837-0.779
				c0.377-0.208,0.769-0.312,1.176-0.312c0.779,0,1.379,0.223,1.799,0.669s0.63,1.08,0.63,1.903v4.001h-1.195v-3.767
				c0-1.143-0.507-1.715-1.52-1.715c-0.486,0-0.894,0.202-1.228,0.604c-0.334,0.403-0.5,0.872-0.5,1.409v3.468h-1.195V48.545z"/>
		</g>
	</g>
</g>
</svg>
